<?xml version="1.0" encoding="utf-8"?>
<!-- Generator: Adobe Illustrator 22.0.1, SVG Export Plug-In . SVG Version: 6.00 Build 0)  -->
<svg version="1.1"
	 id="Layer_1" inkscape:version="0.92.3 (2405546, 2018-03-11)" sodipodi:docname="scikit learn logo small.svg" xmlns:cc="http://creativecommons.org/ns#" xmlns:dc="http://purl.org/dc/elements/1.1/" xmlns:inkscape="http://www.inkscape.org/namespaces/inkscape" xmlns:rdf="http://www.w3.org/1999/02/22-rdf-syntax-ns#" xmlns:sodipodi="http://sodipodi.sourceforge.net/DTD/sodipodi-0.dtd" xmlns:svg="http://www.w3.org/2000/svg"
	 xmlns="http://www.w3.org/2000/svg" xmlns:xlink="http://www.w3.org/1999/xlink" x="0px" y="0px" width="500px" height="500px"
	 viewBox="0 0 500 500" style="enable-background:new 0 0 500 500;" xml:space="preserve">
<style type="text/css">
	.st0{fill:#F89939;}
	.st1{fill:#3499CD;}
	.st2{fill:#010101;}
	.st3{fill:#FFFFFF;}
	.st4{font-family:'ArialMT';}
	.st5{font-size:35.9451px;}
</style>
<g>
	
		<sodipodi:namedview  bordercolor="#666666" borderopacity="1" fit-margin-bottom="0" fit-margin-left="0" fit-margin-right="0" fit-margin-top="0" gridtolerance="10" guidetolerance="10" id="namedview31" inkscape:current-layer="Layer_1" inkscape:cx="121.6884" inkscape:cy="79.49229" inkscape:pageopacity="0" inkscape:pageshadow="2" inkscape:window-height="626" inkscape:window-maximized="0" inkscape:window-width="777" inkscape:window-x="2951" inkscape:window-y="679" inkscape:zoom="1.0907007" objecttolerance="10" pagecolor="#ffffff" showborder="true" showgrid="false" units="mm">
		</sodipodi:namedview>
	<g id="g3" transform="translate(-120.60861,-220.26017)">
		<path id="path5" inkscape:connector-curvature="0" class="st0" d="M485.9,551.7c52.7-52.7,61.5-129.5,19.6-171.4
			c-41.9-41.9-118.7-33.2-171.4,19.6c-52.7,52.7-37.5,153.5-19.6,171.4C329,585.8,433.2,604.5,485.9,551.7L485.9,551.7z"/>
		<path id="path7" inkscape:connector-curvature="0" class="st1" d="M269.5,475.5c-30.6-30.6-75.1-35.7-99.5-11.4
			c-24.3,24.3-19.2,68.9,11.4,99.5c30.6,30.6,89.1,21.8,99.5,11.4C289.3,566.6,300.1,506.1,269.5,475.5z"/>
	</g>
	<g id="g9" transform="translate(-120.60861,-220.26017)">
		<g id="g11">
			<path id="path13" inkscape:connector-curvature="0" class="st2" d="M375.1,538.8c-5.4,5-10.1,8.6-14.2,11
				c-4.1,2.4-8,3.5-11.7,3.5c-4.3,0-7.7-1.6-10.3-4.9c-2.6-3.3-3.9-7.7-3.9-13.3c0-8.3,1.8-18.4,5.4-30.1c3.6-11.7,8-22.5,13.2-32.3
				l15.2-5.6c0.5-0.2,0.8-0.2,1.1-0.2c1.1,0,2.1,0.8,2.8,2.5c0.7,1.7,1.1,4,1.1,6.8c0,8.1-1.9,16-5.6,23.6
				c-3.7,7.6-9.6,15.7-17.5,24.3c-0.3,4.1-0.5,7-0.5,8.5c0,3.5,0.6,6.2,1.9,8.2c1.3,2,3,3,5.1,3c2.2,0,4.4-0.8,6.9-2.3
				c2.4-1.6,6.1-4.8,11.1-9.7L375.1,538.8L375.1,538.8z M352.2,515.5c5-5.6,9.1-11.9,12.3-18.9c3.1-7,4.7-13,4.7-18
				c0-1.5-0.2-2.7-0.7-3.5c-0.4-0.9-1-1.3-1.7-1.3c-1.5,0-3.6,3.7-6.4,11C357.7,492,354.9,502.3,352.2,515.5L352.2,515.5z"/>
			<path id="path15" inkscape:connector-curvature="0" class="st2" d="M419.7,538.8c-5,5-9.6,8.6-13.6,11c-4,2.4-8.4,3.5-13.3,3.5
				c-5.4,0-9.8-1.7-13.1-5.2c-3.3-3.5-5-8-5-13.7c0-8.4,2.9-16.1,8.8-22.9c5.8-6.8,12.3-10.2,19.4-10.2c3.7,0,6.7,1,8.9,2.9
				c2.2,1.9,3.3,4.4,3.3,7.5c0,8.2-8.7,14.9-26.2,20c1.6,7.8,5.7,11.6,12.5,11.6c2.6,0,5.1-0.7,7.5-2.1c2.4-1.4,6-4.6,10.8-9.4
				L419.7,538.8L419.7,538.8z M388.5,527.8c10.2-2.9,15.3-8.2,15.3-15.9c0-3.8-1.4-5.7-4.2-5.7c-2.6,0-5.1,2-7.5,6
				C389.6,516.2,388.5,521.4,388.5,527.8L388.5,527.8z"/>
			<path id="path17" inkscape:connector-curvature="0" class="st2" d="M483.4,538.8c-6.4,6-10.9,10-13.7,11.8
				c-2.7,1.8-5.4,2.7-7.9,2.7c-6.3,0-9.2-5.5-8.9-16.6c-4,5.7-7.6,9.9-11,12.6c-3.4,2.7-6.8,4.1-10.4,4.1c-3.5,0-6.5-1.6-8.9-4.9
				s-3.7-7.3-3.7-12.1c0-6,1.6-11.6,4.9-17.1c3.3-5.4,7.5-9.8,12.6-13.1s9.7-5,13.6-5c5,0,8.5,2.3,10.4,6.9l12.2-6.7h3.3l-5.3,17.5
				c-2.7,8.8-4.1,14.8-4.1,18.1c0,3.4,1.2,5.1,3.6,5.1c1.5,0,3.3-0.8,5.1-2.5c1.9-1.7,4.5-4.2,7.9-7.5L483.4,538.8L483.4,538.8z
				 M439.8,542.1c4,0,7.7-3.4,11.2-10.2c3.5-6.8,5.3-13,5.3-18.8c0-2.2-0.5-4-1.5-5.2c-1-1.3-2.3-1.9-4-1.9c-4,0-7.8,3.4-11.3,10.1
				c-3.6,6.8-5.3,13-5.3,18.7c0,2.2,0.5,3.9,1.6,5.2C436.8,541.4,438.1,542.1,439.8,542.1L439.8,542.1z"/>
			<path id="path19" inkscape:connector-curvature="0" class="st2" d="M528,538.8c-10,9.8-17.7,14.7-23.1,14.7c-2.4,0-4.5-1-6.1-3.1
				c-1.7-2-2.5-4.6-2.5-7.6c0-5.6,3-13.1,9-22.5c-2.9,1.5-6.2,2.6-9.7,3.2c-2.6,4.8-6.6,9.9-12.2,15.4h-1.4v-5.4
				c3.1-3.2,5.9-6.7,8.4-10.4c-3.4-1.5-5.1-3.8-5.1-6.7c0-3.1,1-6.3,3.1-9.8c2.1-3.5,5-5.2,8.6-5.2c3.1,0,4.7,1.6,4.7,4.8
				c0,2.5-0.9,6.1-2.7,10.7c6.6-0.7,12.4-5.8,17.3-15.2l5.4-0.2l-5.5,15.3c-2.3,6.4-3.8,10.8-4.5,13.2c-0.7,2.3-1,4.4-1,6.2
				c0,1.7,0.4,3,1.2,4c0.8,1,1.8,1.5,3.1,1.5c1.4,0,2.8-0.5,4.1-1.5c1.3-1,4.3-3.7,8.8-8.1L528,538.8L528,538.8z"/>
			<path id="path21" inkscape:connector-curvature="0" class="st2" d="M586.6,538.8c-9.2,9.7-17.1,14.6-23.6,14.6
				c-2.7,0-4.8-0.9-6.4-2.8c-1.6-1.9-2.4-4.4-2.4-7.5c0-4.3,1.8-10.8,5.3-19.5c1.9-4.7,2.8-7.7,2.8-8.9c0-1.3-0.5-1.9-1.5-1.9
				c-0.6,0-1.3,0.3-2.2,0.8c-0.8,0.6-1.8,1.3-2.9,2.3c-1,0.9-2.1,2-3.3,3.3c-1.1,1.1-2.2,2.4-3.5,3.8l-3.3,3.9
				c-1.5,1.8-2.4,3.7-2.7,5.7c-0.6,3.4-1,6.5-1.2,9.3c-0.1,2.1-0.2,4.9-0.2,8.5l-13.2,3.1c-0.4-5.4-0.7-9.4-0.7-12
				c0-6.4,0.7-12.5,2.2-18.2c1.5-5.7,3.9-12.2,7.2-19.3l14.6-2.8c-3.1,8.2-5.1,14.7-6,19.4c6.5-7.3,11.7-12.3,15.5-15.1
				c3.8-2.8,7.2-4.2,10.2-4.2c2,0,3.7,0.8,5.1,2.3c1.4,1.5,2,3.4,2,5.7c0,3.8-1.7,10.1-5.1,18.9c-2.3,6-3.5,9.9-3.5,11.7
				c0,2.4,1,3.6,2.9,3.6c2.9,0,7.6-3.8,14.1-11.5V538.8z"/>
		</g>
	</g>
	<text id="text25" transform="matrix(1 0 0 1 272.8516 261.1624)" class="st3 st4 st5">scikit</text>
</g>
</svg>
